<?xml version="1.0" encoding="utf-8"?>
<!-- Generator: Adobe Illustrator 17.1.0, SVG Export Plug-In . SVG Version: 6.00 Build 0)  -->
<!DOCTYPE svg PUBLIC "-//W3C//DTD SVG 1.1//EN" "http://www.w3.org/Graphics/SVG/1.1/DTD/svg11.dtd">
<svg version="1.1" id="Layer_1" xmlns="http://www.w3.org/2000/svg" xmlns:xlink="http://www.w3.org/1999/xlink" x="0px" y="0px"
	 viewBox="0 0 24 17.6" enable-background="new 0 0 24 17.6" xml:space="preserve">
<g id="password_hide_icon_2_">
	<path id="XMLID_338_" fill="#B0BEC5" d="M12,1.3c-5,0-9.3,3.1-11,7.5c1.7,4.4,6,7.5,11,7.5s9.3-3.1,11-7.5C21.3,4.4,17,1.3,12,1.3z
		 M12,13.8c-2.8,0-5-2.2-5-5c0-2.8,2.2-5,5-5c2.8,0,5,2.2,5,5C17,11.5,14.8,13.8,12,13.8z"/>
	<path id="XMLID_335_" fill="#B0BEC5" d="M12,6.1c-1.4,0-2.6,1.2-2.6,2.6c0,1.4,1.2,2.6,2.6,2.6c1.4,0,2.6-1.2,2.6-2.6
		C14.6,7.3,13.4,6.1,12,6.1z"/>
</g>
</svg>
